<?xml version="1.0" encoding="UTF-8" standalone="no"?>
<svg
   xmlns:dc="http://purl.org/dc/elements/1.1/"
   xmlns:cc="http://creativecommons.org/ns#"
   xmlns:rdf="http://www.w3.org/1999/02/22-rdf-syntax-ns#"
   xmlns:svg="http://www.w3.org/2000/svg"
   xmlns="http://www.w3.org/2000/svg"
   xmlns:sodipodi="http://sodipodi.sourceforge.net/DTD/sodipodi-0.dtd"
   xmlns:inkscape="http://www.inkscape.org/namespaces/inkscape"
   width="210mm"
   height="297mm"
   viewBox="0 0 210 297"
   version="1.1"
   id="svg8"
   sodipodi:docname="drawing.svg"
   inkscape:version="1.0.2 (e86c870879, 2021-01-15)">
  <defs
     id="defs2" />
  <sodipodi:namedview
     id="base"
     pagecolor="#ffffff"
     bordercolor="#666666"
     borderopacity="1.0"
     inkscape:pageopacity="0.0"
     inkscape:pageshadow="2"
     inkscape:zoom="0.7"
     inkscape:cx="429.12492"
     inkscape:cy="348.11401"
     inkscape:document-units="mm"
     inkscape:current-layer="layer1"
     inkscape:document-rotation="0"
     showgrid="false"
     inkscape:window-width="1343"
     inkscape:window-height="908"
     inkscape:window-x="282"
     inkscape:window-y="485"
     inkscape:window-maximized="0" />
  <metadata
     id="metadata5">
    <rdf:RDF>
      <cc:Work
         rdf:about="">
        <dc:format>image/svg+xml</dc:format>
        <dc:type
           rdf:resource="http://purl.org/dc/dcmitype/StillImage" />
        <dc:title></dc:title>
      </cc:Work>
    </rdf:RDF>
  </metadata>
  <g
     inkscape:label="Layer 1"
     inkscape:groupmode="layer"
     id="layer1">
    <path
       d="M 87.534953,156.49143 C 81.052757,151.39066 74.145427,146.5131 69.427211,139.6376 59.49135,127.50739 51.840195,113.46963 46.611906,98.709221 c -3.161372,-9.59577 -4.250608,-19.88769 -8.320583,-29.11687 -4.261359,-6.69476 0.732981,-14.027123 8.076189,-16.152479 3.267707,-0.626551 9.011397,-3.719245 2.072136,-1.508944 -6.216516,4.558764 -6.816965,-4.144377 -0.440796,-4.696927 4.356943,-0.58438 5.950935,-4.144377 4.463178,-7.343004 -4.675641,-3.049819 11.328026,-6.391929 3.273025,-10.945473 -8.384344,-9.032583 11.731773,-10.77538 6.769164,-0.499032 -1.179602,7.895553 14.058954,-1.455828 10.520349,7.672445 3.597041,4.38345 13.463923,0.999068 13.214212,7.146402 5.238833,0.361472 7.034745,4.766009 11.95488,5.100772 5.10078,2.300669 14.32995,4.112447 16.06211,9.856137 -5.04765,4.000893 -16.752825,-8.262146 -17.321335,2.816067 1.530231,16.364946 1.137028,33.218776 7.119795,48.802735 2.83203,9.43111 9.69679,16.85906 15.88679,24.20738 5.93497,7.1942 13.97401,12.26315 22.15642,16.5244 7.18366,3.3899 14.93041,5.63213 22.75698,7.04538 3.17202,-2.42818 8.78287,-11.45544 13.72951,-7.65115 0.23897,4.28254 -9.82963,8.94764 -0.47795,8.47471 5.4993,-1.65775 9.30891,4.25071 13.83052,-1.08391 4.17099,4.94142 17.32144,-3.15074 14.36189,6.93925 -4.01153,2.58755 -9.86146,1.02548 -13.87832,4.58538 -6.62568,-3.31018 -11.90187,2.95945 -19.23422,2.16783 -8.14527,1.46115 -16.4287,2.04563 -24.68553,2.05617 -13.54897,-1.06263 -27.3795,-1.51959 -40.26426,-6.2378 -7.26328,-2.1094 -14.345926,-6.24312 -20.721887,-10.38218 z m 11.439588,4.95728 c 7.087969,3.06047 14.027129,6.29103 21.784509,7.26861 12.3269,1.71086 25.05222,4.35694 37.42159,1.94472 -5.6002,-2.5292 -11.38637,0.983 -16.96539,-1.80656 -6.69476,1.43464 -13.81456,-0.37151 -20.72188,-1.25923 -7.73078,-3.44302 -16.07797,-5.81277 -23.314741,-10.28659 -9.048553,-3.30485 4.675741,4.24006 7.119791,4.85106 5.65343,3.20927 -6.216513,-1.594 -7.895554,-2.97542 -4.739402,-2.65672 -5.339843,-2.10407 -0.467907,0.59542 l 2.975422,1.6684 z M 85.478779,151.9167 c 6.870082,2.55039 -0.03008,-4.83509 -3.172115,-4.41006 -1.392073,-2.41755 -5.3292,-3.94778 -2.550388,-5.24426 -4.99444,1.73216 -5.228289,-6.58842 -7.571432,-5.39828 -5.281407,-1.6684 -2.056274,-7.57676 -8.341869,-11.21105 -0.573337,-3.82558 -6.248447,-7.13577 -8.055002,-12.90074 -0.797249,-2.95423 -6.413117,-11.42362 -2.964778,-3.53872 2.932948,7.59805 8.097476,14.09621 12.401201,20.58915 3.336794,6.18469 7.279247,12.6456 13.357704,16.50843 2.050949,1.96591 4.027501,4.97858 6.917866,5.59489 z M 65.692004,130.1853 c 0.238976,-1.03611 1.253907,2.24214 0,0 z m 28.016991,24.7759 c 1.519687,-0.67977 -2.189015,-0.8605 0,0 z m 3.719346,1.36023 c -0.387579,-1.87563 -1.70022,1.05199 0,0 z m 4.675739,1.94463 c 2.22095,-2.11471 -3.42705,-1.32832 0,0 z m 8.0018,4.46317 c 1.34959,-1.99252 -4.3197,-0.74403 0,0 z M 94.750439,152.02294 c 3.453665,-2.23159 -4.463179,-0.0302 0,0 z m 3.506783,1.75343 c -0.106435,-1.1796 -1.24859,0.53116 0,0 z m 17.496748,10.92409 c 2.81607,1.77463 16.4287,3.88934 7.90619,0.72796 -1.43464,0.29722 -15.80706,-4.06997 -7.90619,-0.72796 z M 87.975949,143.06475 c -0.26608,-1.1796 -4.367487,-1.30712 0,0 z m 8.145375,4.75004 c 2.125254,-1.48775 -4.399417,-1.14235 0,0 z m 6.907226,4.25061 c 3.0446,-1.14767 -4.930682,-1.15289 0,0 z M 84.649906,139.44631 c 3.294212,2.5292 13.315122,0.3183 5.047558,-1.50894 -3.756503,-2.00316 -12.220569,-3.37394 -6.450266,1.20611 l 1.39739,0.30324 z m 22.953474,14.01126 c 1.38143,-2.33792 -5.77029,-1.33895 0,0 z m -6.97641,-5.54177 c 8.07619,2.28471 -6.785135,-5.10076 -1.992514,-0.85045 l 1.062732,0.47794 0.929782,0.36147 z m 13.98465,8.07619 c 7.65115,0.0703 -6.90733,-1.06262 0,0 z m -32.905305,-20.9716 c -0.297204,-1.42399 -1.886277,0.11648 0,0 z m 45.837865,28.22424 c 0.20183,-2.57167 -2.49727,1.91279 0,0 z M 94.761082,143.001 c -0.461883,-1.35493 -2.391034,-0.0502 0,0 z m -12.326895,-8.87324 c 4.388765,-0.26608 -6.004053,-1.93408 0,0 z m -14.595642,-9.42579 c -0.547231,-2.10407 -4.771333,-3.7831 0,0 z m 38.319555,24.31894 c -0.79725,-0.91874 -0.37152,0.1968 0,0 z m 23.8461,14.63821 c -0.0703,-1.40271 -1.29638,0.53116 0,0 z m -25.95549,-16.81668 c 0.42472,-1.80646 -3.74586,-0.54723 0,0 z M 86.281047,135.57826 c 3.267707,-0.3454 -5.233608,-2.20497 0,0 z m 30.052083,18.67626 c 5.09012,-2.01902 -4.95739,-0.983 0,0 z m -15.63175,-10.61061 c 5.86056,0.75407 -6.976416,-3.98503 -1.291172,-0.42473 z m 20.37647,12.52872 c 5.47268,-3.2677 3.66623,7.66713 9.28772,0.92477 5.54177,-4.04869 -4.78197,5.00518 2.04031,0.72294 4.94132,-3.30485 12.23653,1.56748 16.84309,3.15083 3.3155,-0.15965 6.53541,2.86919 9.93586,1.02547 6.53541,-1.76408 -12.7944,-2.61414 -7.72546,-5.73836 -5.98286,1.74269 -10.40347,-2.07224 -13.35238,-5.90846 -6.71604,-1.55142 -14.47343,-4.9838 -17.82609,-10.92409 -1.36556,-2.23159 1.96591,0.3183 -1.1796,-3.33147 -4.03804,-3.59715 -6.05716,-7.68308 -8.77754,-12.06121 -3.2411,-1.72683 -3.62898,-6.82228 -3.9531,-0.16969 0.0302,-4.1975 -3.91595,-7.02953 -4.8882,-5.85524 -0.0201,-4.03815 4.224,-2.01913 1.2539,-5.00519 -0.63759,-4.1975 -2.741662,-8.55444 -3.368612,-13.293839 -0.983012,-2.2848 -0.138569,-7.17301 -3.347441,-2.00316 -1.168859,5.456719 -0.387579,-6.7054 1.434647,-2.69919 2.390934,-4.09126 -0.860504,-3.61301 -0.988027,-3.0445 1.556844,-3.45366 0.988027,-8.35251 -0.408666,-6.48219 0.828374,-3.66623 1.31235,-13.46925 -1.238037,-11.73178 1.540874,-3.82558 2.932939,-17.518035 -3.783107,-12.300287 -2.720377,0.04017 -7.427949,0.988027 -9.654212,2.093427 6.97631,3.84676 -0.70086,1.39207 -3.549357,0.77616 -0.371517,3.5599 -3.187984,2.01902 -6.694767,2.05617 5.621493,0.69082 -2.736338,5.73837 -5.950827,3.78311 -4.186954,1.99783 3.61301,6.99227 0.08035,8.53847 0.435778,2.32196 -6.413208,-0.83942 -5.87653,4.53757 -4.059431,-1.71086 -0.558273,6.37597 1.477122,3.63963 6.907222,1.87031 4.861591,6.13157 5.037005,10.18558 -1.126483,2.3591 -5.557731,-5.54709 -0.988018,-5.1805 -3.613019,-5.86057 -3.984927,-2.12525 -6.986953,0.60547 -0.690815,0.1968 7.651154,3.87869 2.412221,5.68524 4.606662,0.71191 4.739403,4.744729 5.674611,7.289789 2.762851,2.88515 2.194333,-3.18798 5.50984,0.28115 -2.098749,-3.08175 -11.104728,-8.697919 -3.852095,-6.907329 -0.04013,-3.10294 -1.312442,-5.61085 0.913722,-5.55241 2.205084,-3.98492 -2.305886,9.829629 2.656723,4.76078 1.370778,-0.60044 1.716189,-3.98502 4.181528,0.3183 3.58118,3.527969 1.296481,6.078349 -3.76182,2.847899 0.903677,3.07111 6.763847,4.16566 5.658642,8.9635 1.168966,4.2241 2.800206,2.66737 4.224102,2.42287 1.062731,4.1019 1.753445,1.08391 1.806555,-0.86653 5.111419,1.09456 3.91063,4.11787 5.515166,6.22716 3.522744,1.59399 -5.047558,-10.77538 1.009604,-3.71925 6.36,5.73837 2.390943,8.14528 -3.320816,7.22603 3.61301,-0.29219 4.781968,4.88831 9.298265,4.70235 4.12308,1.96591 6.907222,9.49487 -0.190778,6.35468 -2.460121,-2.22094 -11.189868,-4.96261 -4.059431,-0.74403 6.577888,3.04982 11.806171,4.86702 18.150301,8.69792 4.53759,3.18798 6.49817,6.9498 8.21967,7.68831 -3.81492,1.82242 -11.49802,-1.45583 -5.84459,-2.46012 -3.56,-0.64864 -7.56621,-2.44405 -4.15502,1.98719 2.90101,2.42287 10.27062,2.16783 11.5936,2.44416 -1.11584,2.46533 -3.04448,2.65661 0.0401,2.85321 -3.44302,1.83839 1.1052,2.12536 1.424,3.17203 z m -7.04539,-19.89301 c -2.09874,-2.19444 -2.64076,-6.29624 -0.37151,-2.7257 1.16886,0.46791 3.71925,6.71073 0.37151,2.7257 z m 22.95347,14.51059 c 1.30702,-0.0804 0.0401,0.99405 0,0 z m -26.24778,-19.95145 c -0.0804,-3.3155 0.75407,2.55039 0,0 z m -2.28471,-3.06578 c -2.64065,-5.10077 3.32082,1.43464 0,0 z m -27.639759,-19.1279 c 1.551418,-0.41469 0.76512,2.64608 0,0 z m 21.997089,11.92306 c 0.95689,-3.57576 1.06262,2.9967 0,0 z M 87.269273,109.76092 c -1.094454,-1.9659 2.284807,1.84903 0,0 z m 13.336407,4.27191 c -2.497268,-5.59489 1.77463,-3.05515 0.55828,0.91371 z M 77.609735,98.698581 c -1.062622,-1.83839 -2.959552,-7.22603 -2.364429,-8.87314 0.531162,2.67791 5.695898,11.529849 2.529101,3.71925 -3.49614,-6.58843 4.181628,2.136 4.973252,3.7831 0.371509,1.63115 -2.157184,-0.44581 -0.445814,3.389909 -3.124223,-4.367589 -1.843712,2.41223 -4.686285,-1.965899 z m -7.103932,-4.89885 c 0.292194,-4.2719 1.625923,2.9223 0,0 z m 3.198629,1.1052 c 1.524913,-3.21992 2.582318,4.48968 0,0 z m -7.757391,-5.8446 c -2.646071,-2.63011 -4.558862,-5.04766 0.127523,-1.63124 1.806555,0.0703 -4.01154,-5.50984 0.435769,-1.77463 4.675741,0.85046 2.305994,7.66712 -0.558273,3.40054 z m 4.038144,-0.10644 c 1.540775,-1.5249 0.818338,1.4984 0,0 z m 2.486627,0.79725 c -2.337917,-4.36758 2.826612,1.83306 0,0 z m -4.941422,-4.71821 c -7.693629,-6.85421 9.670181,3.57586 1.253907,1.27519 z m 22.039551,12.80505 c -3.331369,-1.99252 -0.887616,-14.04842 0.250019,-5.80746 3.241202,-1.04676 -0.180732,4.26125 2.231589,4.20814 -0.371518,3.34734 -1.461152,4.553539 -2.481309,1.59399 z m 8.150693,4.819119 c 0.319297,-3.634309 0.690815,2.48663 0,0 z m -1.41336,-1.40272 c 0.371518,-1.551409 0.03016,1.82785 0,0 z M 69.092551,82.780051 c -4.941421,-6.81696 14.361784,6.89669 3.166698,1.72683 -1.168958,-0.30825 -2.576992,-0.41469 -3.166698,-1.72683 z m 15.700739,8.32068 c -0.467907,-5.73836 1.041444,0.9559 0,0 z m 11.917731,7.65117 c 0.91874,-3.26771 0.07029,2.162499 0,0 z M 69.852345,80.176551 c 2.938265,-0.62655 12.220569,5.15389 3.692741,1.64711 -0.940833,-1.04144 -2.954234,-0.56831 -3.692741,-1.64711 z m 25.216892,12.57129 c 0.319297,-5.8712 1.753437,-3.50678 0.01005,0.85047 z m -23.033194,-14.6116 c 1.200888,-1.75344 -3.177341,-7.9328 0.626546,-2.21562 1.593992,1.30702 4.766007,2.18901 2.019026,2.74166 4.33033,3.82559 -1.062631,1.03602 -2.640753,-0.53116 z m 21.784605,12.78376 c 0.823356,-6.69477 0.727971,3.91595 0,0 z m -24.281775,-18.9578 c 0.913721,-0.3936 0.477944,1.22208 0,0 z m 5.685146,3.38458 c 1.461152,-3.0711 2.699197,3.42174 0,0 z m 16.03028,8.91571 c -0.01005,-1.16896 0.303236,1.71619 0,0 z m -0.929782,-2.05095 c -2.221046,-5.48865 2.125254,2.90634 0,0 z m -1.36556,-3.60247 c -0.371518,-2.26874 1.275185,2.848 0,0 z m 2.220937,-3.61302 c -1.530231,-2.68854 1.92876,-11.84865 2.316638,-6.16339 -1.609954,4.43124 -0.461884,6.90722 0.653666,0.95689 2.072136,-4.67574 -0.445823,9.22919 -2.975522,5.20701 z m 2.284707,-13.633916 c 0.663703,-0.818333 0.148602,0.983006 0,0 z m -3.820255,75.188585 c -0.903685,-0.79724 0.116472,0.49903 0,0 z m 7.863725,3.97429 c 4.372809,1.12649 4.356949,-0.67977 0.398621,-1.22197 -2.125353,-1.97656 -8.830764,-4.0753 -2.826712,-0.244 0.393602,1.06262 1.64711,0.983 2.428191,1.46115 z M 81.993183,130.21723 c 2.406904,1.80656 9.06984,5.09013 3.432378,0.69082 1.902247,-2.2103 -3.639615,-3.3899 -1.806455,-4.86693 -4.675741,-2.86917 -3.692733,-2.65671 -0.41469,-2.51323 -5.621493,-2.51324 0.813319,-2.32195 0.510083,-3.61301 -2.167828,-0.42473 -10.764743,-3.82558 -5.706442,0.27613 -5.143341,-2.61948 -1.222076,0.97798 -2.778912,0.60044 -5.313238,-1.43465 4.675742,4.00621 -0.834398,2.65662 3.012662,2.39093 8.118755,6.12624 1.275186,2.52909 -0.902671,1.29648 4.898956,3.26771 6.375969,4.25072 z m 8.219681,4.72886 c 9.989076,3.21981 -4.904174,-3.93181 0,0 z m 42.081356,25.49322 c 0.12753,-1.9872 -1.36546,1.70022 0,0 z m 4.32502,1.82252 c 2.30599,-2.23159 0.10041,3.5599 3.82558,-0.54723 0.0401,-2.93827 -0.10644,-4.67574 -4.28244,-1.1052 -1.153,0.63759 -1.66307,3.34733 0.46187,1.64711 z M 67.955424,119.12305 c -0.706883,-2.78414 -4.962609,-2.77349 0,0 z m 4.622623,3.02864 c -1.716189,-2.84268 -6.120923,-2.577 0,0 z m 26.279615,15.84954 c 2.566248,2.28471 11.784888,1.67371 3.113578,0.28215 -1.27519,-1.89682 -8.145266,-1.43454 -3.113578,-0.28215 z m 36.119788,22.31587 c 3.94778,-3.31549 -3.82558,1.47713 0,0 z m 8.21436,5.64278 c 0.0301,-1.06272 -1.70023,0.46189 0,0 z m 0.0201,-1.48775 c 4.37292,-4.62263 -4.23463,0.26609 0,0 z M 56.59968,109.61222 c -3.719346,-5.31324 -2.316637,-7.70427 -5.90846,-12.045249 -0.679772,-3.32083 -6.163407,-10.85511 -2.837256,-2.86919 3.049818,4.67574 3.953096,11.901769 8.745716,14.930399 z m 85.22535,53.37747 c 8.04969,-5.19636 -3.29431,-2.26341 0,0 z m 6.14212,2.4069 c 4.03815,-3.45356 -2.55038,-0.72294 0,0 z M 66.588651,113.25185 c 1.152997,-1.71619 -2.975413,-0.22291 0,0 z m 80.098079,50.50296 c 3.89989,-2.51313 -0.90367,-2.12536 -0.70687,0.22893 z M 93.75559,130.38722 c -0.132541,-1.70022 -2.0616,0.14359 0,0 z m 3.267707,1.88096 c -1.041443,-2.10406 -1.593992,0.32935 0,0 z m 55.922423,33.18163 c 4.99454,-3.61311 -3.02853,-0.69081 -1.04666,0.69081 z m -1.91279,-0.92476 c 4.0753,-3.41119 -4.30372,1.50894 0,0 z m 9.77652,6.5087 c 2.73102,-1.82774 -3.32083,-0.58438 0,0 z M 69.101791,112.00296 c 3.666228,0.81833 14.638207,9.02194 8.166554,0.56831 -3.315498,-0.983 -1.328311,-9.0858 -4.712889,-7.65116 2.268837,3.79365 1.859673,5.40893 -2.901017,3.01789 -5.988083,-2.92229 -3.363299,1.44529 -2.194432,2.65672 -1.593993,0.37151 2.109384,1.38143 1.647101,1.41336 z M 52.418052,98.825891 c 0.653658,-2.70973 -6.041201,-14.9303 -3.16138,-6.12092 1.036018,1.84371 0.929791,5.33994 3.16138,6.12092 z m 30.636557,18.888829 c -1.891603,-1.57803 -0.09037,-0.22291 0,0 z m 4.643811,1.08391 c 0,-2.86918 -5.132698,-1.16886 0,0 z m 40.25884,25.37634 c -0.77013,-1.96591 -3.02853,-0.0401 0,0 z m 1.93408,1.41336 c -0.28717,-1.09988 -1.06263,0.21286 0,0 z m 15.95588,10.05273 c 1.54087,-1.13171 -1.91279,-0.1486 0,0 z M 60.740039,100.9621 c 4.388773,-1.700229 -4.702354,-1.211439 0,0 z m 63.653311,40.10482 c -0.0502,-2.84258 -2.8001,0.70687 0,0 z M 59.002563,96.913311 c 2.816068,-0.9559 -2.603506,-0.62655 0,0 z m 8.182424,3.963739 c -0.05018,-0.934809 -0.865531,0.35645 0,0 z m 99.826413,61.20926 c 3.62366,-0.73298 11.89113,1.84371 13.23008,-0.95689 -4.41006,-0.10644 -15.23324,-3.10826 -15.74331,0.71189 l 0.95589,0.15965 1.55684,0.10042 z M 69.788584,101.53593 c 0.06024,-2.879829 -2.242225,-0.10643 0,0 z M 48.269659,86.605531 c -0.97799,-5.48333 -3.719354,-0.82837 0,0 z m 5.12738,1.29116 c 0.06024,-1.76408 -4.697028,-1.58335 0,0 z m 2.932939,1.43454 c -0.850459,-0.69081 -0.658684,0.86653 0,0 z m 18.453046,11.832789 c 0.871554,-0.79725 -2.056175,-0.58438 0,0 z M 54.379939,86.074161 c -0.499032,-4.14437 -5.950835,-0.62152 0,0 z m -10.52034,-6.8276 c -0.148611,-1.91279 -1.025483,0.72295 0,0 z m 1.567479,-1.1795 c -0.255037,-2.26874 -1.344273,0.28717 0,0 z m 8.644706,5.15389 c 3.655585,-1.43454 -6.657511,-2.97542 -0.744032,-0.26608 z M 169.78489,154.72212 c 2.33793,-2.14664 -2.97541,-0.6637 0,0 z m 13.97402,7.24199 c 0.94082,-2.76285 -2.36443,0.37151 0,0 z M 54.948449,78.715301 c 0.387587,-2.68323 -2.901009,0.53116 0,0 z M 42.64284,70.479661 c -0.647634,-3.79897 -0.552249,-10.440615 5.75966,-8.19838 -8.432244,1.67893 5.844599,10.48841 4.038144,3.52796 3.549249,0.17572 6.939152,-2.09874 5.074162,1.34428 6.997597,-0.7601 11.832783,-6.827606 18.591303,-5.972122 5.313238,-0.701859 11.009136,-1.222077 16.683747,-3.347432 4.659772,-0.334362 9.138914,-5.350489 6.588532,-8.325906 -6.354782,-0.531163 -13.006975,0.255039 -20.031177,1.657751 -7.783994,1.615278 -14.850678,4.691606 -22.703752,6.00405 -7.651163,1.030798 1.540874,2.831933 -0.653666,3.241099 -3.984927,1.381426 4.766007,2.31663 -0.515101,3.78311 -3.262381,-0.62154 -6.657511,-1.7428 -5.26012,-5.180501 -7.332357,0.955893 -13.777405,3.995571 -7.980597,11.455451 l 0.424727,0.005 z m 17.682708,-8.952956 c 1.716189,-6.333392 9.207999,5.207106 2.816069,0.850466 -0.760093,-0.574342 -2.019019,-1.036122 -2.816069,-0.850466 z m 0.334361,-3.071006 c 2.481309,-1.843809 1.317668,1.036019 0,0 z m 3.150736,0.0502 c 0.228931,-2.911757 7.215477,1.593992 1.152989,1.046663 z m 4.303825,-1.732153 c 1.578023,-1.843709 0.456857,1.631142 0,0 z m 1.105197,-0.74403 c 2.624693,-3.150832 14.840035,-2.019122 5.8446,-0.308256 -2.391035,-1.806456 -4.234738,1.062728 -5.8446,0.308256 z m 15.939914,-2.460118 c -0.393602,-8.607553 7.927379,3.055141 0,0 z m 4.526932,-0.03012 c 1.64711,-4.335656 6.429087,-1.742797 0.770138,-0.871549 0.122504,0.461881 -0.16969,2.242231 -0.770138,0.871549 z M 53.1681,76.530201 c 4.94143,-3.02863 -5.244151,-2.62479 0,0 z m 3.655592,1.06263 c 1.732151,-1.84371 -3.719345,-0.74403 0,0 z M 46.05895,69.862051 c 2.816068,-2.17847 -3.347429,-0.82335 0,0 z m 145.95648,91.309139 c 0.0804,-2.51856 -2.15728,1.13171 0,0 z m -14.82417,-10.12192 c 0.42473,-2.89569 -1.91279,0.25001 0,0 z m 18.91532,11.10482 c 3.94778,0.0201 11.96563,-1.22208 3.37395,-1.22208 -1.3495,0.21287 -7.86363,0.15965 -3.37395,1.22208 z M 60.048825,75.722611 c 3.19862,-0.21286 4.99454,-3.52274 -0.621536,-3.33678 -8.713785,-0.90369 7.683094,2.98606 -1.062622,1.87031 -1.179602,0.78118 1.668388,1.67894 1.737476,1.46115 z m 2.816069,1.4239 c -0.334361,-2.05095 -0.988027,1.08924 0,0 z m 3.347429,-8.90506 c 1.381421,-1.72151 -1.912791,-0.46188 0,0 z M 55.585647,50.473794 c 5.706541,-1.939398 13.506506,-4.117869 16.205595,0.955892 -2.741663,-3.294314 -1.105097,-6.546057 1.487757,-1.721509 3.666128,4.877562 5.493978,-2.221046 3.113579,-3.85751 2.709841,3.368618 5.79149,4.962609 1.817199,0.212867 4.330338,-5.207105 -8.660768,0.679769 -11.614894,0.621531 -1.418678,0.637597 -14.664721,3.379261 -10.998592,3.788428 z m 3.34743,-6.402573 c 3.251745,-2.454697 11.253529,1.46115 6.120931,-2.444154 -0.505055,-0.440795 -11.237668,2.959552 -6.120931,2.444154 z m 11.859295,0.488991 c 3.804295,0.100408 -1.647102,-5.116637 2.890473,-2.752208 -0.744032,-2.43351 -5.281507,-2.885149 -7.502452,-3.862831 -1.253907,2.220945 2.550387,6.641648 4.606662,6.615039 z M 61.015864,33.795475 c 1.31776,-1.78527 -2.311311,0.90368 0,0 z m 4.824543,1.158317 C 71.9772,34.14048 64.278245,32.313038 64.60237,34.893542 Z m -9.053871,-7.066677 c -4.319786,-5.642779 8.129306,0.945851 3.735215,-4.957288 -3.698059,-2.938265 -7.24199,3.315502 -3.735215,4.957288 z M 112.2255,57.747916 c 1.98187,-3.50678 -8.18252,-4.728857 -1.32831,-1.243363 0.62656,0.212866 0.489,1.487759 1.32831,1.243363 z"
       id="path10"
       style="stroke-width:5.3133;fill:#241c1f" />
    <path
       class="st0"
       d="M 75.421784,30.928962 66.309245,20.19388 52.46203,39.890997 c -1.338184,1.662246 -2.804358,3.120213 -4.369912,4.387039 -1.680912,1.359325 -3.484152,2.510181 -5.401156,3.463232 l -21.455056,8.575099 8.939604,11.126934 c 5.138048,5.38338 23.141516,-6.172453 28.424205,-10.019233 4.237362,-3.079204 18.63746,-18.153199 18.088147,-23.176624 -0.126541,-1.090645 -0.546739,-2.198277 -1.266074,-3.318483 z M 67.565642,6.1864749 78.339913,19.596985 78.762592,19.257398 c 0.290937,-0.233745 0.716622,-0.187344 0.950365,0.103591 l 2.897543,3.606512 c 0.229333,0.285447 0.187343,0.716621 -0.103595,0.950366 l -0.422677,0.339588 1.01436,1.262553 c 0.617351,-0.333391 1.412735,-0.186592 1.866992,0.378813 v 0 c 0.511591,0.636766 0.407996,1.587131 -0.228767,2.098719 l -2.080471,1.671493 c -0.636764,0.511588 -1.582721,0.413483 -2.098721,-0.228771 v 0 c -0.454257,-0.565404 -0.426243,-1.373749 0.03232,-1.904761 l -1.01436,-1.262554 -0.422678,0.339588 c -0.285445,0.229333 -0.716622,0.187344 -0.950367,-0.103592 L 75.304998,22.90243 c -0.233743,-0.290935 -0.187342,-0.716619 0.103596,-0.950364 L 75.831271,21.612479 65.687669,8.9869469 49.218752,33.436959 c -3.215738,4.137202 -7.13711,7.396102 -11.9229,9.579094 L 7.2629867,55.249046 4.5479022,56.355492 C 0.92440622,57.433052 -0.49860852,54.267754 1.557838,51.621973 l 20.826118,-30.19075 c 2.178716,-3.078223 4.89881,-5.471352 8.475578,-6.809448 L 64.254811,1.0874509 c 3.499168,-1.63705697 6.24981,0.606122 3.741701,4.454816 z"
       id="path23"
       style="fill:#ff80e5;stroke-width:0.704155" />
  </g>
  <style
     type="text/css"
     id="style21"><![CDATA[
	.st0{fill-rule:evenodd;clip-rule:evenodd;}
]]></style>
</svg>
